<?xml version="1.0" encoding="utf-8"?>
<!-- Generator: Adobe Illustrator 18.1.1, SVG Export Plug-In . SVG Version: 6.00 Build 0)  -->
<!DOCTYPE svg PUBLIC "-//W3C//DTD SVG 1.1//EN" "http://www.w3.org/Graphics/SVG/1.1/DTD/svg11.dtd">
<svg version="1.1" id="Layer_1" xmlns="http://www.w3.org/2000/svg" xmlns:xlink="http://www.w3.org/1999/xlink" x="0px" y="0px"
	 viewBox="0 0 70 70" enable-background="new 0 0 70 70" xml:space="preserve">
<path d="M47.5,25.4H25.7c-2.3,0-4.3-1.9-4.3-4.3v-3.7c0-2.3,1.9-4.3,4.3-4.3h21.7c2.3,0,4.3,1.9,4.3,4.3v3.7
	C51.7,23.5,49.8,25.4,47.5,25.4z"/>
<path d="M56.4,52.3H17.3C12.7,52.3,9,48.6,9,44V30.3c0-4.6,3.7-8.3,8.3-8.3h39.2c4.6,0,8.3,3.7,8.3,8.3V44
	C64.7,48.6,61,52.3,56.4,52.3z"/>
<circle stroke="#FFFFFF" stroke-miterlimit="10" cx="36.8" cy="37.1" r="20.7"/>
<circle fill="#FFFFFF" stroke="#000000" stroke-miterlimit="10" cx="36.7" cy="37.1" r="13.4"/>
<path stroke="#FFFFFF" stroke-miterlimit="10" d="M48.3,37.5h-2c-0.4-6-4.8-9.8-9.8-10v-2C42.5,25.8,47.9,30.5,48.3,37.5z"/>
<path stroke="#FFFFFF" stroke-miterlimit="10" d="M45.1,36.5h-1.3c-0.2-4-3.4-6.4-6.4-6.5v-1.3C41.5,28.8,44.9,31.5,45.1,36.5z"/>
</svg>
